<svg xmlns="http://www.w3.org/2000/svg" xmlns:xlink="http://www.w3.org/1999/xlink" version="1.1" data-diagram-type="ACTIVITY" style="width:576px;height:501px;background:#FBFAFF;" width="576px" height="501px" viewBox="0 0 576 501" zoomAndPan="magnify" preserveAspectRatio="none" contentStyleType="text/css"><?plantuml 1.2026.7beta8?><defs/><g font-family="sans-serif" lengthAdjust="spacing"><rect x="0" y="0" width="576" height="501" fill="#FBFAFF" style="stroke:none;"/><g class="title" data-source-line="1"><text x="87.857" y="38.564" fill="#3B0764" font-size="20" textLength="399.111" font-weight="700" font-family="Helvetica">Temporal RAG Pipeline — Workflow</text></g><rect x="13" y="57.281" width="545.825" height="16.641" fill="#FFC" style="stroke:#FD8;stroke-width:3;" rx="2.5" ry="2.5"/><text x="20" y="67.922" fill="#000" font-size="10" textLength="535.825" font-family="monospace">This syntax is deprecated, you must add &lt;&lt;#DDD6FE>> at the end of the line, after the ';'</text><ellipse cx="245.44" cy="90.922" rx="10" ry="10" fill="#10B981" style="stroke:#222;stroke-width:1;"/><polygon points="211.306,120.922,279.573,120.922,291.573,132.922,279.573,144.922,211.306,144.922,199.306,132.922,211.306,120.922" fill="#EDE9FE" style="stroke:#8B5CF6;stroke-width:1.4;stroke-linejoin:miter;stroke-miterlimit:10;"/><text x="211.306" y="136.73" fill="#2E1065" font-size="11" textLength="68.267" font-family="Helvetica">User action?</text><text x="114.696" y="130.328" fill="#7C6BA0" font-size="11" textLength="84.611" font-family="Helvetica">Add knowledge</text><text x="291.573" y="130.328" fill="#7C6BA0" font-size="11" textLength="80.883" font-family="Helvetica">Ask a question</text><polygon points="93.232,154.922,137.093,154.922,149.093,166.922,137.093,178.922,93.232,178.922,81.232,166.922,93.232,154.922" fill="#EDE9FE" style="stroke:#8B5CF6;stroke-width:1.4;stroke-linejoin:miter;stroke-miterlimit:10;"/><text x="93.232" y="170.73" fill="#2E1065" font-size="11" textLength="43.86" font-family="Helvetica">Source?</text><text x="59.802" y="164.328" fill="#7C6BA0" font-size="11" textLength="21.431" font-family="Helvetica">PDF</text><text x="149.093" y="164.328" fill="#7C6BA0" font-size="11" textLength="49.946" font-family="Helvetica">Web URL</text><rect x="16" y="188.922" width="77.885" height="33.969" fill="#F3F0FF" style="stroke:#8B5CF6;stroke-width:1.4;" rx="8" ry="8"/><text x="26" y="210.061" fill="#2E1065" font-size="12" textLength="57.885" font-family="Helvetica">Read PDF</text><rect x="113.885" y="188.922" width="122.996" height="33.969" fill="#F3F0FF" style="stroke:#8B5CF6;stroke-width:1.4;" rx="8" ry="8"/><text x="123.885" y="210.061" fill="#2E1065" font-size="12" textLength="102.996" font-family="Helvetica">Scrape page text</text><polygon points="115.163,228.891,127.163,240.891,115.163,252.891,103.163,240.891,115.163,228.891" fill="#EDE9FE" style="stroke:#8B5CF6;stroke-width:1.4;stroke-linejoin:miter;stroke-miterlimit:10;"/><rect x="55.244" y="277.859" width="119.838" height="33.969" fill="#F3F0FF" style="stroke:#8B5CF6;stroke-width:1.4;" rx="8" ry="8"/><text x="65.244" y="298.998" fill="#2E1065" font-size="12" textLength="99.838" font-family="Helvetica">Split into chunks</text><rect x="61.003" y="336.797" width="108.318" height="33.969" fill="#F3F0FF" style="stroke:#8B5CF6;stroke-width:1.4;" rx="8" ry="8"/><text x="71.003" y="357.936" fill="#2E1065" font-size="12" textLength="88.318" font-family="Helvetica">Embed chunks</text><rect x="34.994" y="395.734" width="160.338" height="33.969" fill="#F3F0FF" style="stroke:#8B5CF6;stroke-width:1.4;" rx="8" ry="8"/><text x="44.994" y="416.873" fill="#2E1065" font-size="12" textLength="140.338" font-family="Helvetica">Store vectors in Qdrant</text><ellipse cx="115.163" cy="465.672" rx="11" ry="11" fill="none" style="stroke:#222;stroke-width:1;"/><ellipse cx="115.163" cy="465.672" rx="6" ry="6" fill="#222" style="stroke:#222;stroke-width:1;"/><rect x="316.943" y="154.922" width="117.547" height="33.969" fill="#F3F0FF" style="stroke:#8B5CF6;stroke-width:1.4;" rx="8" ry="8"/><text x="326.943" y="176.061" fill="#2E1065" font-size="12" textLength="97.547" font-family="Helvetica">Embed question</text><rect x="266.881" y="223.891" width="217.672" height="33.969" fill="#F3F0FF" style="stroke:#8B5CF6;stroke-width:1.4;" rx="8" ry="8"/><text x="276.881" y="245.029" fill="#2E1065" font-size="12" textLength="197.672" font-family="Helvetica">Retrieve candidates from Qdrant</text><rect x="295.563" y="282.828" width="160.309" height="33.969" fill="#F3F0FF" style="stroke:#8B5CF6;stroke-width:1.4;" rx="8" ry="8"/><text x="305.563" y="303.967" fill="#2E1065" font-size="12" textLength="140.309" font-family="Helvetica">Rerank (cross-encoder)</text><rect x="286.272" y="341.766" width="178.889" height="33.969" fill="#F3F0FF" style="stroke:#8B5CF6;stroke-width:1.4;" rx="8" ry="8"/><text x="296.272" y="362.904" fill="#2E1065" font-size="12" textLength="158.889" font-family="Helvetica">Generate answer (Ollama)</text><rect x="291.086" y="400.703" width="169.262" height="33.969" fill="#F3F0FF" style="stroke:#8B5CF6;stroke-width:1.4;" rx="8" ry="8"/><text x="301.086" y="421.842" fill="#2E1065" font-size="12" textLength="149.262" font-family="Helvetica">Return grounded answer</text><ellipse cx="375.717" cy="470.641" rx="11" ry="11" fill="none" style="stroke:#222;stroke-width:1;"/><ellipse cx="375.717" cy="470.641" rx="6" ry="6" fill="#222" style="stroke:#222;stroke-width:1;"/><line x1="81.232" y1="166.922" x2="54.942" y2="166.922" style="stroke:#8B5CF6;stroke-width:1.4;"/><line x1="54.942" y1="166.922" x2="54.942" y2="188.922" style="stroke:#8B5CF6;stroke-width:1.4;"/><polygon points="50.942,178.922,54.942,188.922,58.942,178.922,54.942,182.922" fill="#8B5CF6" style="stroke:#8B5CF6;stroke-width:1;stroke-linejoin:miter;stroke-miterlimit:10;"/><line x1="149.093" y1="166.922" x2="175.383" y2="166.922" style="stroke:#8B5CF6;stroke-width:1.4;"/><line x1="175.383" y1="166.922" x2="175.383" y2="188.922" style="stroke:#8B5CF6;stroke-width:1.4;"/><polygon points="171.383,178.922,175.383,188.922,179.383,178.922,175.383,182.922" fill="#8B5CF6" style="stroke:#8B5CF6;stroke-width:1;stroke-linejoin:miter;stroke-miterlimit:10;"/><line x1="54.942" y1="222.891" x2="54.942" y2="240.891" style="stroke:#8B5CF6;stroke-width:1.4;"/><line x1="54.942" y1="240.891" x2="103.163" y2="240.891" style="stroke:#8B5CF6;stroke-width:1.4;"/><polygon points="93.163,236.891,103.163,240.891,93.163,244.891,97.163,240.891" fill="#8B5CF6" style="stroke:#8B5CF6;stroke-width:1;stroke-linejoin:miter;stroke-miterlimit:10;"/><line x1="175.383" y1="222.891" x2="175.383" y2="240.891" style="stroke:#8B5CF6;stroke-width:1.4;"/><line x1="175.383" y1="240.891" x2="127.163" y2="240.891" style="stroke:#8B5CF6;stroke-width:1.4;"/><polygon points="137.163,236.891,127.163,240.891,137.163,244.891,133.163,240.891" fill="#8B5CF6" style="stroke:#8B5CF6;stroke-width:1;stroke-linejoin:miter;stroke-miterlimit:10;"/><line x1="115.163" y1="252.891" x2="115.163" y2="277.859" style="stroke:#8B5CF6;stroke-width:1.4;"/><polygon points="111.163,267.859,115.163,277.859,119.163,267.859,115.163,271.859" fill="#8B5CF6" style="stroke:#8B5CF6;stroke-width:1;stroke-linejoin:miter;stroke-miterlimit:10;"/><line x1="115.163" y1="311.828" x2="115.163" y2="336.797" style="stroke:#8B5CF6;stroke-width:1.4;"/><polygon points="111.163,326.797,115.163,336.797,119.163,326.797,115.163,330.797" fill="#8B5CF6" style="stroke:#8B5CF6;stroke-width:1;stroke-linejoin:miter;stroke-miterlimit:10;"/><line x1="115.163" y1="370.766" x2="115.163" y2="395.734" style="stroke:#8B5CF6;stroke-width:1.4;"/><polygon points="111.163,385.734,115.163,395.734,119.163,385.734,115.163,389.734" fill="#8B5CF6" style="stroke:#8B5CF6;stroke-width:1;stroke-linejoin:miter;stroke-miterlimit:10;"/><line x1="115.163" y1="429.703" x2="115.163" y2="454.672" style="stroke:#8B5CF6;stroke-width:1.4;"/><polygon points="111.163,444.672,115.163,454.672,119.163,444.672,115.163,448.672" fill="#8B5CF6" style="stroke:#8B5CF6;stroke-width:1;stroke-linejoin:miter;stroke-miterlimit:10;"/><line x1="375.717" y1="188.891" x2="375.717" y2="223.891" style="stroke:#8B5CF6;stroke-width:1.4;"/><polygon points="371.717,213.891,375.717,223.891,379.717,213.891,375.717,217.891" fill="#8B5CF6" style="stroke:#8B5CF6;stroke-width:1;stroke-linejoin:miter;stroke-miterlimit:10;"/><line x1="375.717" y1="257.859" x2="375.717" y2="282.828" style="stroke:#8B5CF6;stroke-width:1.4;"/><polygon points="371.717,272.828,375.717,282.828,379.717,272.828,375.717,276.828" fill="#8B5CF6" style="stroke:#8B5CF6;stroke-width:1;stroke-linejoin:miter;stroke-miterlimit:10;"/><line x1="375.717" y1="316.797" x2="375.717" y2="341.766" style="stroke:#8B5CF6;stroke-width:1.4;"/><polygon points="371.717,331.766,375.717,341.766,379.717,331.766,375.717,335.766" fill="#8B5CF6" style="stroke:#8B5CF6;stroke-width:1;stroke-linejoin:miter;stroke-miterlimit:10;"/><line x1="375.717" y1="375.734" x2="375.717" y2="400.703" style="stroke:#8B5CF6;stroke-width:1.4;"/><polygon points="371.717,390.703,375.717,400.703,379.717,390.703,375.717,394.703" fill="#8B5CF6" style="stroke:#8B5CF6;stroke-width:1;stroke-linejoin:miter;stroke-miterlimit:10;"/><line x1="375.717" y1="434.672" x2="375.717" y2="459.641" style="stroke:#8B5CF6;stroke-width:1.4;"/><polygon points="371.717,449.641,375.717,459.641,379.717,449.641,375.717,453.641" fill="#8B5CF6" style="stroke:#8B5CF6;stroke-width:1;stroke-linejoin:miter;stroke-miterlimit:10;"/><line x1="199.306" y1="132.922" x2="115.163" y2="132.922" style="stroke:#8B5CF6;stroke-width:1.4;"/><line x1="115.163" y1="132.922" x2="115.163" y2="154.922" style="stroke:#8B5CF6;stroke-width:1.4;"/><polygon points="111.163,144.922,115.163,154.922,119.163,144.922,115.163,148.922" fill="#8B5CF6" style="stroke:#8B5CF6;stroke-width:1;stroke-linejoin:miter;stroke-miterlimit:10;"/><line x1="291.573" y1="132.922" x2="375.717" y2="132.922" style="stroke:#8B5CF6;stroke-width:1.4;"/><line x1="375.717" y1="132.922" x2="375.717" y2="154.922" style="stroke:#8B5CF6;stroke-width:1.4;"/><polygon points="371.717,144.922,375.717,154.922,379.717,144.922,375.717,148.922" fill="#8B5CF6" style="stroke:#8B5CF6;stroke-width:1;stroke-linejoin:miter;stroke-miterlimit:10;"/><line x1="245.44" y1="100.922" x2="245.44" y2="120.922" style="stroke:#8B5CF6;stroke-width:1.4;"/><polygon points="241.44,110.922,245.44,120.922,249.44,110.922,245.44,114.922" fill="#8B5CF6" style="stroke:#8B5CF6;stroke-width:1;stroke-linejoin:miter;stroke-miterlimit:10;"/><?plantuml-src ZPFFSfim4CRlFCNEv13xa0pE7vAuXmuOI0-TDhMToNcD5bk3aAWax2QdFaIVi4zIOHC7EtOdN43wVhlxQLbPRWN1bCfAQHGm3k_XWLSak2Ju-_iFF2bTv4AjFEyKphOFs0MLrDdmJC5bXHfBc65MpBMg9HifeJISf54Qfcc7C0jaQiNb778KXZfA6wObQHW47O5HZhMmgPBs6xhANqWioV8CEyoqEKf3j7Kl8_yck3e4JFWBmOL_KBBFhXyp9PZNaKEjrQfDUnjTZz9WNvmkU5P8CWO6vrVxOiVKpIY8GdydTsRvajldw5tVBbD_fszRKcb6-gYT7UgehvRgMBj81dvmVO29EPPAidS6apYvIvF_17p8Pmj_nCZ4edw51dvqTpiu02LRVyTRWtkkFDDazdWElKVZPWyTgEJdVZFd4deXOr18jHB4vjJt01fmecgTqPPvYDD60HYE2HcuvIUt93VVq7kY6JoElxRw9DDO4LGu9x3qowuvoNZkDM8bk0KkhO9iKSl2DEemAMV4EXidSHm7QJASMAK9bfIvjt5Hy8DfbEkCnghAsvGFJG48FsiopQdwRmbVjzOrncGrfoL1XiuCGqi6SgtAJax7kCy2UfbMnfoHp9JxmVsrT4_kqheWG6bMheMzxq9WYVskNLUYrX8sG-JgRz0tjqqJ_W40?></g></svg>